<?xml version="1.0" encoding="utf-8"?>
<!-- Generator: Adobe Illustrator 24.1.1, SVG Export Plug-In . SVG Version: 6.00 Build 0)  -->
<svg version="1.1" id="Layer_1" xmlns="http://www.w3.org/2000/svg" xmlns:xlink="http://www.w3.org/1999/xlink" x="0px" y="0px"
	 viewBox="0 0 1280 1280" style="enable-background:new 0 0 1280 1280;" xml:space="preserve">
<style type="text/css">
	.st0{fill:#FFFFFF;}
</style>
<g id="XMLID_2199_">
	<g id="XMLID_2239_">
		<g id="XMLID_2243_">
			<g id="XMLID_2244_">
				<path id="XMLID_2245_" class="st0" d="M145.04,185.4c-5.11,0-9.22-4.15-9.22-9.22l0,0c0-5.11,4.11-9.22,9.22-9.22l0,0
					c5.07,0,9.22,4.11,9.22,9.22l0,0C154.26,181.25,150.11,185.4,145.04,185.4z M145.04,232.31c-5.11,0-9.22-4.15-9.22-9.22l0,0
					c0-5.12,4.11-9.22,9.22-9.22l0,0c5.07,0,9.22,4.1,9.22,9.22l0,0C154.26,228.16,150.11,232.31,145.04,232.31z M145.04,279.22
					c-5.11,0-9.22-4.1-9.22-9.22l0,0c0-5.06,4.11-9.22,9.22-9.22l0,0c5.07,0,9.22,4.15,9.22,9.22l0,0
					C154.26,275.12,150.11,279.22,145.04,279.22z M145.04,326.13c-5.11,0-9.22-4.1-9.22-9.22l0,0c0-5.07,4.11-9.22,9.22-9.22l0,0
					c5.07,0,9.22,4.15,9.22,9.22l0,0C154.26,322.03,150.11,326.13,145.04,326.13z M145.04,373.04c-5.11,0-9.22-4.1-9.22-9.16l0,0
					c0-5.13,4.11-9.26,9.22-9.26l0,0c5.07,0,9.22,4.13,9.22,9.26l0,0C154.26,368.94,150.11,373.04,145.04,373.04z M145.04,420
					c-5.11,0-9.22-4.15-9.22-9.22l0,0c0-5.11,4.11-9.21,9.22-9.21l0,0c5.07,0,9.22,4.1,9.22,9.21l0,0
					C154.26,415.85,150.11,420,145.04,420z"/>
			</g>
		</g>
		<g id="XMLID_2240_">
			<g id="XMLID_2241_">
				<path id="XMLID_2242_" class="st0" d="M154.26,129.27c0,2.4-0.96,4.79-2.73,6.5c-1.69,1.7-4.09,2.72-6.49,2.72
					c-2.39,0-4.79-1.02-6.49-2.72c-3.46-3.42-3.46-9.63-0.04-13.05c1.75-1.69,4.14-2.72,6.54-2.72c2.4,0,4.8,1.02,6.49,2.72
					C153.3,124.42,154.26,126.83,154.26,129.27z"/>
			</g>
		</g>
	</g>
	<g id="XMLID_2226_">
		<g id="XMLID_2230_">
			<g id="XMLID_2231_">
				<path id="XMLID_2232_" class="st0" d="M195.77,185.4c-5.11,0-9.22-4.15-9.22-9.22l0,0c0-5.11,4.1-9.22,9.22-9.22l0,0
					c5.07,0,9.22,4.11,9.22,9.22l0,0C205,181.25,200.85,185.4,195.77,185.4z M195.77,232.31c-5.11,0-9.22-4.15-9.22-9.22l0,0
					c0-5.07,4.1-9.22,9.22-9.22l0,0c5.07,0,9.22,4.15,9.22,9.22l0,0C205,228.16,200.85,232.31,195.77,232.31z M195.77,279.22
					c-5.11,0-9.22-4.1-9.22-9.22l0,0c0-5.06,4.1-9.22,9.22-9.22l0,0c5.07,0,9.22,4.15,9.22,9.22l0,0
					C205,275.12,200.85,279.22,195.77,279.22z M195.77,326.13c-5.11,0-9.22-4.1-9.22-9.22l0,0c0-5.07,4.1-9.22,9.22-9.22l0,0
					c5.07,0,9.22,4.15,9.22,9.22l0,0C205,322.03,200.85,326.13,195.77,326.13z M195.77,373.04c-5.11,0-9.22-4.1-9.22-9.16l0,0
					c0-5.13,4.1-9.22,9.22-9.22l0,0c5.07,0,9.22,4.09,9.22,9.22l0,0C205,368.94,200.85,373.04,195.77,373.04z M195.77,420
					c-5.11,0-9.22-4.15-9.22-9.22l0,0c0-5.11,4.1-9.21,9.22-9.21l0,0c5.07,0,9.22,4.1,9.22,9.21l0,0
					C205,415.85,200.85,420,195.77,420z"/>
			</g>
		</g>
		<g id="XMLID_2227_">
			<g id="XMLID_2228_">
				<path id="XMLID_2229_" class="st0" d="M205,129.27c0,2.4-1.01,4.79-2.72,6.5c-1.7,1.7-4.11,2.72-6.5,2.72
					c-2.44,0-4.79-1.02-6.54-2.72c-3.4-3.46-3.4-9.58,0-13.05c1.75-1.69,4.1-2.72,6.54-2.72c2.4,0,4.8,1.02,6.5,2.72
					C203.99,124.42,205,126.83,205,129.27z"/>
			</g>
		</g>
	</g>
	<g id="XMLID_2213_">
		<g id="XMLID_2217_">
			<g id="XMLID_2218_">
				<path id="XMLID_2219_" class="st0" d="M244.9,185.4c-5.07,0-9.22-4.15-9.22-9.22l0,0c0-5.11,4.15-9.22,9.22-9.22l0,0
					c5.11,0,9.22,4.11,9.22,9.22l0,0C254.12,181.25,250.02,185.4,244.9,185.4z M244.9,232.31c-5.07,0-9.22-4.15-9.22-9.22l0,0
					c0-5.07,4.15-9.22,9.22-9.22l0,0c5.11,0,9.22,4.15,9.22,9.22l0,0C254.12,228.16,250.02,232.31,244.9,232.31z M244.9,279.22
					c-5.07,0-9.22-4.1-9.22-9.22l0,0c0-5.06,4.15-9.22,9.22-9.22l0,0c5.11,0,9.22,4.15,9.22,9.22l0,0
					C254.12,275.12,250.02,279.22,244.9,279.22z M244.9,326.13c-5.07,0-9.22-4.1-9.22-9.22l0,0c0-5.07,4.15-9.22,9.22-9.22l0,0
					c5.11,0,9.22,4.15,9.22,9.22l0,0C254.12,322.03,250.02,326.13,244.9,326.13z M244.9,373.09c-5.07,0-9.22-4.15-9.22-9.21l0,0
					c0-5.13,4.15-9.22,9.22-9.22l0,0c5.11,0,9.22,4.09,9.22,9.22l0,0C254.12,368.94,250.02,373.09,244.9,373.09z M244.9,420
					c-5.07,0-9.22-4.15-9.22-9.22l0,0c0-5.11,4.15-9.21,9.22-9.21l0,0c5.11,0,9.22,4.1,9.22,9.21l0,0
					C254.12,415.85,250.02,420,244.9,420z"/>
			</g>
		</g>
		<g id="XMLID_2214_">
			<g id="XMLID_2215_">
				<path id="XMLID_2216_" class="st0" d="M254.12,129.27c0,2.4-0.97,4.79-2.67,6.5c-1.75,1.7-4.1,2.72-6.55,2.72
					c-2.39,0-4.79-1.02-6.49-2.72c-3.42-3.46-3.42-9.58,0-13.05c1.7-1.69,4.1-2.67,6.49-2.67c2.45,0,4.83,0.97,6.55,2.67
					C253.16,124.47,254.12,126.83,254.12,129.27z"/>
			</g>
		</g>
	</g>
	<g id="XMLID_2200_">
		<g id="XMLID_2204_">
			<g id="XMLID_2205_">
				<path id="XMLID_2206_" class="st0" d="M295.64,185.4c-5.12,0-9.22-4.15-9.22-9.22l0,0c0-5.11,4.09-9.22,9.22-9.22l0,0
					c5.06,0,9.22,4.11,9.22,9.22l0,0C304.86,181.25,300.7,185.4,295.64,185.4z M295.64,232.31c-5.12,0-9.22-4.11-9.22-9.22l0,0
					c0-5.07,4.09-9.22,9.22-9.22l0,0c5.06,0,9.22,4.15,9.22,9.22l0,0C304.86,228.2,300.7,232.31,295.64,232.31z M295.64,279.22
					c-5.12,0-9.22-4.1-9.22-9.22l0,0c0-5.06,4.09-9.22,9.22-9.22l0,0c5.06,0,9.22,4.15,9.22,9.22l0,0
					C304.86,275.12,300.7,279.22,295.64,279.22z M295.64,326.13c-5.12,0-9.22-4.1-9.22-9.22l0,0c0-5.07,4.09-9.22,9.22-9.22l0,0
					c5.06,0,9.22,4.15,9.22,9.22l0,0C304.86,322.03,300.7,326.13,295.64,326.13z M295.64,373.09c-5.12,0-9.22-4.15-9.22-9.21l0,0
					c0-5.13,4.09-9.26,9.22-9.26l0,0c5.06,0,9.22,4.13,9.22,9.26l0,0C304.86,368.94,300.7,373.09,295.64,373.09z M295.64,420
					c-5.12,0-9.22-4.15-9.22-9.22l0,0c0-5.11,4.09-9.21,9.22-9.21l0,0c5.06,0,9.22,4.1,9.22,9.21l0,0
					C304.86,415.85,300.7,420,295.64,420z"/>
			</g>
		</g>
		<g id="XMLID_2201_">
			<g id="XMLID_2202_">
				<path id="XMLID_2203_" class="st0" d="M304.86,129.27c0,2.4-0.97,4.79-2.67,6.5c-1.75,1.7-4.15,2.72-6.54,2.72
					c-2.45,0-4.8-1.02-6.5-2.72c-3.45-3.46-3.45-9.58-0.05-13.05c1.75-1.69,4.15-2.72,6.55-2.72c2.39,0,4.8,1.02,6.49,2.72
					C303.9,124.47,304.86,126.83,304.86,129.27z"/>
			</g>
		</g>
	</g>
</g>
</svg>
